<mxfile host="app.diagrams.net" modified="2024-05-31T00:02:08.465Z" agent="Mozilla/5.0 (Windows NT 10.0; Win64; x64) AppleWebKit/537.36 (KHTML, like Gecko) Chrome/125.0.0.0 Safari/537.36" etag="Jim2BymPPJT56GP-fI77" version="24.4.10" type="device">
  <diagram name="Page-1" id="i2lvcuTBgYAlCcFUpmUH">
    <mxGraphModel dx="1432" dy="761" grid="1" gridSize="10" guides="1" tooltips="1" connect="1" arrows="1" fold="1" page="1" pageScale="1" pageWidth="827" pageHeight="1169" math="0" shadow="0">
      <root>
        <mxCell id="0" />
        <mxCell id="1" parent="0" />
        <mxCell id="4t-yZNYD0nhIyF8x1905-32" value="" style="rounded=0;whiteSpace=wrap;html=1;align=right;" vertex="1" parent="1">
          <mxGeometry x="340" y="640" width="440" height="380" as="geometry" />
        </mxCell>
        <mxCell id="4t-yZNYD0nhIyF8x1905-20" value="" style="rounded=0;whiteSpace=wrap;html=1;align=right;" vertex="1" parent="1">
          <mxGeometry x="220" y="190" width="560" height="380" as="geometry" />
        </mxCell>
        <mxCell id="4t-yZNYD0nhIyF8x1905-31" style="edgeStyle=orthogonalEdgeStyle;rounded=0;orthogonalLoop=1;jettySize=auto;html=1;exitX=1;exitY=0.3333333333333333;exitDx=0;exitDy=0;exitPerimeter=0;entryX=0;entryY=0.5;entryDx=0;entryDy=0;" edge="1" parent="1" source="4t-yZNYD0nhIyF8x1905-1" target="4t-yZNYD0nhIyF8x1905-4">
          <mxGeometry relative="1" as="geometry" />
        </mxCell>
        <mxCell id="4t-yZNYD0nhIyF8x1905-1" value="User" style="shape=umlActor;verticalLabelPosition=bottom;verticalAlign=top;html=1;outlineConnect=0;" vertex="1" parent="1">
          <mxGeometry x="118" y="345" width="30" height="60" as="geometry" />
        </mxCell>
        <mxCell id="4t-yZNYD0nhIyF8x1905-3" value="local.db" style="shape=cylinder3;whiteSpace=wrap;html=1;boundedLbl=1;backgroundOutline=1;size=15;" vertex="1" parent="1">
          <mxGeometry x="430" y="465" width="60" height="80" as="geometry" />
        </mxCell>
        <mxCell id="4t-yZNYD0nhIyF8x1905-16" style="edgeStyle=orthogonalEdgeStyle;rounded=0;orthogonalLoop=1;jettySize=auto;html=1;entryX=0;entryY=0.5;entryDx=0;entryDy=0;" edge="1" parent="1" source="4t-yZNYD0nhIyF8x1905-4" target="4t-yZNYD0nhIyF8x1905-7">
          <mxGeometry relative="1" as="geometry" />
        </mxCell>
        <mxCell id="4t-yZNYD0nhIyF8x1905-44" style="edgeStyle=orthogonalEdgeStyle;rounded=0;orthogonalLoop=1;jettySize=auto;html=1;entryX=0;entryY=0.5;entryDx=0;entryDy=0;exitX=0.5;exitY=1;exitDx=0;exitDy=0;" edge="1" parent="1" source="4t-yZNYD0nhIyF8x1905-4" target="4t-yZNYD0nhIyF8x1905-35">
          <mxGeometry relative="1" as="geometry" />
        </mxCell>
        <mxCell id="4t-yZNYD0nhIyF8x1905-45" value="ZMQ - Client/Response" style="edgeLabel;html=1;align=center;verticalAlign=middle;resizable=0;points=[];" vertex="1" connectable="0" parent="4t-yZNYD0nhIyF8x1905-44">
          <mxGeometry x="-0.5057" y="2" relative="1" as="geometry">
            <mxPoint as="offset" />
          </mxGeometry>
        </mxCell>
        <mxCell id="4t-yZNYD0nhIyF8x1905-4" value="Terminal UI" style="whiteSpace=wrap;html=1;aspect=fixed;" vertex="1" parent="1">
          <mxGeometry x="240" y="320" width="90" height="90" as="geometry" />
        </mxCell>
        <mxCell id="4t-yZNYD0nhIyF8x1905-9" value="Spawns" style="edgeStyle=orthogonalEdgeStyle;rounded=0;orthogonalLoop=1;jettySize=auto;html=1;" edge="1" parent="1" source="4t-yZNYD0nhIyF8x1905-7" target="4t-yZNYD0nhIyF8x1905-8">
          <mxGeometry relative="1" as="geometry" />
        </mxCell>
        <mxCell id="4t-yZNYD0nhIyF8x1905-7" value="Scheduler -&amp;nbsp;&lt;div&gt;Main Event Loop&lt;/div&gt;" style="shape=process;whiteSpace=wrap;html=1;backgroundOutline=1;" vertex="1" parent="1">
          <mxGeometry x="400" y="335" width="120" height="60" as="geometry" />
        </mxCell>
        <mxCell id="4t-yZNYD0nhIyF8x1905-8" value="Executor" style="shape=process;whiteSpace=wrap;html=1;backgroundOutline=1;" vertex="1" parent="1">
          <mxGeometry x="620" y="335" width="120" height="60" as="geometry" />
        </mxCell>
        <mxCell id="4t-yZNYD0nhIyF8x1905-10" style="edgeStyle=orthogonalEdgeStyle;rounded=0;orthogonalLoop=1;jettySize=auto;html=1;exitX=0.5;exitY=1;exitDx=0;exitDy=0;entryX=0.5;entryY=0;entryDx=0;entryDy=0;entryPerimeter=0;" edge="1" parent="1" source="4t-yZNYD0nhIyF8x1905-7" target="4t-yZNYD0nhIyF8x1905-3">
          <mxGeometry relative="1" as="geometry" />
        </mxCell>
        <mxCell id="4t-yZNYD0nhIyF8x1905-11" value="Poll Schedules" style="edgeLabel;html=1;align=center;verticalAlign=middle;resizable=0;points=[];" vertex="1" connectable="0" parent="4t-yZNYD0nhIyF8x1905-10">
          <mxGeometry x="0.3412" relative="1" as="geometry">
            <mxPoint y="-12" as="offset" />
          </mxGeometry>
        </mxCell>
        <mxCell id="4t-yZNYD0nhIyF8x1905-23" style="edgeStyle=orthogonalEdgeStyle;rounded=0;orthogonalLoop=1;jettySize=auto;html=1;exitX=0.5;exitY=1;exitDx=0;exitDy=0;" edge="1" parent="1" source="4t-yZNYD0nhIyF8x1905-21" target="4t-yZNYD0nhIyF8x1905-7">
          <mxGeometry relative="1" as="geometry" />
        </mxCell>
        <mxCell id="4t-yZNYD0nhIyF8x1905-46" style="edgeStyle=orthogonalEdgeStyle;rounded=0;orthogonalLoop=1;jettySize=auto;html=1;exitX=0;exitY=0.5;exitDx=0;exitDy=0;entryX=0;entryY=0.5;entryDx=0;entryDy=0;" edge="1" parent="1" source="4t-yZNYD0nhIyF8x1905-21" target="4t-yZNYD0nhIyF8x1905-40">
          <mxGeometry relative="1" as="geometry" />
        </mxCell>
        <mxCell id="4t-yZNYD0nhIyF8x1905-47" value="Trigger flow" style="edgeLabel;html=1;align=center;verticalAlign=middle;resizable=0;points=[];" vertex="1" connectable="0" parent="4t-yZNYD0nhIyF8x1905-46">
          <mxGeometry x="-0.649" y="2" relative="1" as="geometry">
            <mxPoint as="offset" />
          </mxGeometry>
        </mxCell>
        <mxCell id="4t-yZNYD0nhIyF8x1905-21" value="ZMQ -&amp;nbsp;&lt;div&gt;Event Handler&lt;/div&gt;" style="shape=hexagon;perimeter=hexagonPerimeter2;whiteSpace=wrap;html=1;fixedSize=1;" vertex="1" parent="1">
          <mxGeometry x="400" y="191" width="120" height="70" as="geometry" />
        </mxCell>
        <mxCell id="4t-yZNYD0nhIyF8x1905-25" style="edgeStyle=orthogonalEdgeStyle;rounded=0;orthogonalLoop=1;jettySize=auto;html=1;exitX=0.5;exitY=1;exitDx=0;exitDy=0;entryX=0.5;entryY=0;entryDx=0;entryDy=0;" edge="1" parent="1" source="4t-yZNYD0nhIyF8x1905-24" target="4t-yZNYD0nhIyF8x1905-21">
          <mxGeometry relative="1" as="geometry" />
        </mxCell>
        <mxCell id="4t-yZNYD0nhIyF8x1905-26" value="Publish Msg" style="edgeLabel;html=1;align=center;verticalAlign=middle;resizable=0;points=[];" vertex="1" connectable="0" parent="4t-yZNYD0nhIyF8x1905-25">
          <mxGeometry x="-0.0579" y="3" relative="1" as="geometry">
            <mxPoint as="offset" />
          </mxGeometry>
        </mxCell>
        <mxCell id="4t-yZNYD0nhIyF8x1905-24" value="External Process" style="shape=process;whiteSpace=wrap;html=1;backgroundOutline=1;" vertex="1" parent="1">
          <mxGeometry x="400" y="10" width="120" height="60" as="geometry" />
        </mxCell>
        <mxCell id="4t-yZNYD0nhIyF8x1905-27" value="Executor" style="shape=process;whiteSpace=wrap;html=1;backgroundOutline=1;" vertex="1" parent="1">
          <mxGeometry x="620" y="430" width="120" height="60" as="geometry" />
        </mxCell>
        <mxCell id="4t-yZNYD0nhIyF8x1905-28" value="Executor" style="shape=process;whiteSpace=wrap;html=1;backgroundOutline=1;" vertex="1" parent="1">
          <mxGeometry x="620" y="250" width="120" height="60" as="geometry" />
        </mxCell>
        <mxCell id="4t-yZNYD0nhIyF8x1905-29" value="VM - Master Instance" style="text;html=1;align=center;verticalAlign=middle;resizable=0;points=[];autosize=1;strokeColor=none;fillColor=none;" vertex="1" parent="1">
          <mxGeometry x="625" y="200" width="140" height="30" as="geometry" />
        </mxCell>
        <mxCell id="4t-yZNYD0nhIyF8x1905-34" value="Spawns" style="edgeStyle=orthogonalEdgeStyle;rounded=0;orthogonalLoop=1;jettySize=auto;html=1;" edge="1" parent="1" source="4t-yZNYD0nhIyF8x1905-35" target="4t-yZNYD0nhIyF8x1905-36">
          <mxGeometry relative="1" as="geometry" />
        </mxCell>
        <mxCell id="4t-yZNYD0nhIyF8x1905-35" value="Scheduler -&amp;nbsp;&lt;div&gt;Main Event Loop&lt;/div&gt;" style="shape=process;whiteSpace=wrap;html=1;backgroundOutline=1;" vertex="1" parent="1">
          <mxGeometry x="400" y="785" width="120" height="60" as="geometry" />
        </mxCell>
        <mxCell id="4t-yZNYD0nhIyF8x1905-36" value="Executor" style="shape=process;whiteSpace=wrap;html=1;backgroundOutline=1;" vertex="1" parent="1">
          <mxGeometry x="620" y="785" width="120" height="60" as="geometry" />
        </mxCell>
        <mxCell id="4t-yZNYD0nhIyF8x1905-39" style="edgeStyle=orthogonalEdgeStyle;rounded=0;orthogonalLoop=1;jettySize=auto;html=1;exitX=0.5;exitY=1;exitDx=0;exitDy=0;" edge="1" parent="1" source="4t-yZNYD0nhIyF8x1905-40" target="4t-yZNYD0nhIyF8x1905-35">
          <mxGeometry relative="1" as="geometry" />
        </mxCell>
        <mxCell id="4t-yZNYD0nhIyF8x1905-40" value="ZMQ -&amp;nbsp;&lt;div&gt;Event Listener&lt;/div&gt;" style="shape=hexagon;perimeter=hexagonPerimeter2;whiteSpace=wrap;html=1;fixedSize=1;" vertex="1" parent="1">
          <mxGeometry x="400" y="641" width="120" height="70" as="geometry" />
        </mxCell>
        <mxCell id="4t-yZNYD0nhIyF8x1905-41" value="Executor" style="shape=process;whiteSpace=wrap;html=1;backgroundOutline=1;" vertex="1" parent="1">
          <mxGeometry x="620" y="880" width="120" height="60" as="geometry" />
        </mxCell>
        <mxCell id="4t-yZNYD0nhIyF8x1905-42" value="Executor" style="shape=process;whiteSpace=wrap;html=1;backgroundOutline=1;" vertex="1" parent="1">
          <mxGeometry x="620" y="700" width="120" height="60" as="geometry" />
        </mxCell>
        <mxCell id="4t-yZNYD0nhIyF8x1905-43" value="Docker Container - Child Instance" style="text;html=1;align=center;verticalAlign=middle;resizable=0;points=[];autosize=1;strokeColor=none;fillColor=none;" vertex="1" parent="1">
          <mxGeometry x="580" y="650" width="200" height="30" as="geometry" />
        </mxCell>
      </root>
    </mxGraphModel>
  </diagram>
</mxfile>
